<svg width="243" height="92" viewBox="0 0 243 92" fill="none" xmlns="http://www.w3.org/2000/svg">
<g filter="url(#filter0_d_422_12399)">
<rect x="10" y="6" width="223" height="71.9997" rx="10" fill="white"/>
<path d="M96.757 29.9721C96.7789 30.4037 96.7104 30.835 96.5556 31.24C96.4008 31.6449 96.1629 32.0149 95.8564 32.3276C95.513 32.6742 95.0982 32.9464 94.6392 33.1263C94.1802 33.3062 93.6873 33.3897 93.1928 33.3715C92.6952 33.3758 92.2017 33.2833 91.7414 33.0994C91.281 32.9155 90.8631 32.6439 90.5121 32.3005C90.1612 31.9572 89.8843 31.549 89.6978 31.1C89.5112 30.6511 89.4188 30.1703 89.4259 29.6861C89.4189 29.2019 89.5113 28.7211 89.6979 28.2722C89.8844 27.8232 90.1613 27.415 90.5122 27.0716C90.8631 26.7282 91.281 26.4566 91.7414 26.2726C92.2017 26.0886 92.6952 25.9959 93.1928 26.0001C93.7045 25.9986 94.211 26.0993 94.6811 26.2959C95.1176 26.4681 95.5062 26.7383 95.8152 27.0843L95.1779 27.705C94.935 27.4268 94.6297 27.2067 94.2855 27.0615C93.9413 26.9163 93.5675 26.8501 93.1928 26.8678C92.8157 26.8659 92.442 26.9381 92.0942 27.08C91.7465 27.222 91.4317 27.4308 91.1688 27.694C90.9059 27.9571 90.7003 28.2692 90.5642 28.6115C90.4282 28.9538 90.3645 29.3193 90.3771 29.6861C90.3681 30.2355 90.527 30.7752 90.8336 31.2366C91.1402 31.6981 91.5807 32.0605 92.0992 32.278C92.6177 32.4956 93.191 32.5583 93.7462 32.4584C94.3015 32.3584 94.8137 32.1002 95.218 31.7166C95.5901 31.3265 95.8057 30.8192 95.8257 30.2873H93.1928V29.4397H96.7062C96.7394 29.6154 96.7564 29.7935 96.757 29.9721Z" fill="#1A141F"/>
<path d="M102.327 27.0253H99.0246V29.2624H102.002V30.1101H99.0246V32.3472H102.327V33.2143H98.0935V26.1582H102.327V27.0253Z" fill="#1A141F"/>
<path d="M106.254 33.2143H105.322V27.0253H103.297V26.1582H108.279V27.0253H106.254V33.2143Z" fill="#1A141F"/>
<path d="M111.886 33.2143V26.1582H112.818V33.2143H111.886Z" fill="#1A141F"/>
<path d="M116.949 33.2143H116.017V27.0253H113.992V26.1582H118.974V27.0253H116.949V33.2143Z" fill="#1A141F"/>
<path d="M128.409 32.3021C127.703 32.9869 126.747 33.3714 125.75 33.3714C124.754 33.3714 123.798 32.9869 123.092 32.3021C122.743 31.958 122.469 31.5491 122.285 31.0996C122.102 30.6502 122.013 30.1695 122.024 29.686C122.013 29.2025 122.102 28.7218 122.285 28.2723C122.469 27.8229 122.743 27.414 123.092 27.0698C123.441 26.7303 123.855 26.461 124.311 26.2774C124.767 26.0938 125.256 25.9996 125.749 26C126.242 26.0004 126.731 26.0955 127.186 26.2799C127.642 26.4643 128.056 26.7342 128.404 27.0744C128.753 27.4176 129.028 27.8257 129.213 28.2743C129.397 28.7229 129.487 29.2029 129.477 29.686C129.488 30.1694 129.399 30.6501 129.215 31.0995C129.032 31.5489 128.758 31.9578 128.409 32.3021ZM123.78 31.7113C124.303 32.2191 125.011 32.5043 125.75 32.5043C126.488 32.5043 127.197 32.2191 127.72 31.7113C127.988 31.4443 128.197 31.1271 128.336 30.779C128.474 30.4309 128.539 30.0591 128.526 29.686C128.539 29.3129 128.474 28.9411 128.336 28.593C128.197 28.2449 127.988 27.9277 127.72 27.6606C127.197 27.1529 126.488 26.8676 125.75 26.8676C125.011 26.8676 124.303 27.1529 123.78 27.6606C123.513 27.9279 123.303 28.2451 123.165 28.5932C123.027 28.9413 122.962 29.313 122.975 29.686C122.962 30.0589 123.027 30.4307 123.165 30.7787C123.303 31.1268 123.513 31.444 123.78 31.7113Z" fill="#1A141F"/>
<path d="M130.781 33.2143V26.1582H131.915L135.439 31.6472H135.479L135.439 30.2874V26.1582H136.371V33.2143H135.399L131.712 27.4593H131.672L131.712 28.8192V33.2143H130.781Z" fill="#1A141F"/>
<path d="M121.793 43.5059C120.778 43.5096 119.786 43.8062 118.943 44.358C118.1 44.9099 117.445 45.6924 117.059 46.6067C116.673 47.521 116.574 48.5261 116.774 49.4951C116.975 50.4641 117.466 51.3535 118.185 52.0512C118.905 52.7488 119.821 53.2233 120.817 53.4147C121.814 53.6062 122.846 53.506 123.784 53.1269C124.722 52.7477 125.524 52.1066 126.088 51.2845C126.652 50.4623 126.953 49.496 126.953 48.5076C126.963 47.8465 126.836 47.1901 126.58 46.5776C126.324 45.9652 125.944 45.4091 125.462 44.9424C124.981 44.4758 124.408 44.1081 123.778 43.8613C123.147 43.6145 122.473 43.4937 121.793 43.5059ZM121.793 51.539C121.168 51.5824 120.543 51.4415 120.001 51.1347C119.459 50.8279 119.024 50.3694 118.754 49.8188C118.483 49.2683 118.389 48.6512 118.484 48.0479C118.579 47.4447 118.858 46.8832 119.286 46.4366C119.713 45.99 120.269 45.6789 120.88 45.5439C121.492 45.4089 122.131 45.4562 122.715 45.6797C123.298 45.9031 123.799 46.2924 124.152 46.7968C124.505 47.3012 124.694 47.8973 124.694 48.5076C124.713 48.8931 124.653 49.2785 124.516 49.6409C124.38 50.0034 124.17 50.3356 123.9 50.6181C123.63 50.9006 123.304 51.1276 122.942 51.2857C122.58 51.4439 122.19 51.53 121.793 51.539ZM110.538 43.5059C109.523 43.5096 108.531 43.8061 107.688 44.358C106.845 44.9099 106.19 45.6923 105.804 46.6066C105.417 47.5209 105.318 48.526 105.519 49.495C105.719 50.464 106.211 51.3535 106.93 52.0511C107.65 52.7487 108.566 53.2232 109.562 53.4147C110.559 53.6062 111.591 53.506 112.529 53.1269C113.467 52.7477 114.269 52.1066 114.833 51.2845C115.397 50.4623 115.697 49.496 115.697 48.5076C115.707 47.8465 115.581 47.1901 115.325 46.5777C115.069 45.9652 114.689 45.4091 114.207 44.9425C113.726 44.4758 113.153 44.1081 112.523 43.8614C111.893 43.6146 111.218 43.4937 110.538 43.5059ZM110.538 51.539C109.913 51.5824 109.288 51.4415 108.746 51.1347C108.204 50.8279 107.769 50.3694 107.499 49.8188C107.228 49.2683 107.134 48.6512 107.229 48.0479C107.324 47.4447 107.603 46.8832 108.031 46.4366C108.458 45.99 109.014 45.6789 109.625 45.5439C110.237 45.4089 110.876 45.4562 111.46 45.6797C112.043 45.9031 112.544 46.2924 112.897 46.7968C113.25 47.3012 113.439 47.8973 113.439 48.5076C113.458 48.8931 113.398 49.2785 113.261 49.6409C113.125 50.0034 112.915 50.3356 112.645 50.6181C112.375 50.9006 112.049 51.1276 111.687 51.2857C111.325 51.4439 110.935 51.53 110.538 51.539ZM97.1499 45.0406V47.1625H102.368C102.292 48.1577 101.874 49.0991 101.18 49.8339C100.657 50.3525 100.028 50.7588 99.3342 51.0264C98.64 51.2939 97.8959 51.4169 97.1499 51.3874C95.6248 51.3673 94.1691 50.7636 93.0979 49.707C92.0268 48.6504 91.4262 47.2258 91.4262 45.7415C91.4262 44.2572 92.0268 42.8326 93.0979 41.776C94.1691 40.7193 95.6248 40.1157 97.1499 40.0956C98.6148 40.0769 100.028 40.6216 101.083 41.6112L102.621 40.1145C101.901 39.4213 101.047 38.8748 100.107 38.5072C99.1677 38.1395 98.1623 37.9581 97.1499 37.9736C96.0919 37.9586 95.0413 38.1484 94.0594 38.5321C93.0774 38.9157 92.1836 39.4855 91.43 40.2083C90.6763 40.9311 90.0779 41.7925 89.6694 42.7424C89.2609 43.6923 89.0505 44.7118 89.0505 45.7415C89.0505 46.7712 89.2609 47.7907 89.6694 48.7406C90.0779 49.6905 90.6763 50.5518 91.43 51.2747C92.1836 51.9975 93.0774 52.5672 94.0594 52.9509C95.0413 53.3345 96.0919 53.5244 97.1499 53.5094C98.1837 53.5511 99.2148 53.3784 100.175 53.0028C101.135 52.6272 102.002 52.0571 102.718 51.3306C103.99 49.9797 104.668 48.198 104.607 46.3668C104.612 45.9221 104.572 45.4779 104.49 45.0406H97.1499ZM151.904 46.6888C151.595 45.7828 151.007 44.9913 150.219 44.4219C149.432 43.8524 148.484 43.5326 147.504 43.5059C146.843 43.5099 146.19 43.6441 145.585 43.9005C144.979 44.157 144.433 44.5302 143.98 44.9977C143.527 45.4653 143.176 46.0173 142.949 46.6206C142.721 47.2239 142.621 47.8658 142.656 48.5076C142.641 49.1652 142.762 49.819 143.013 50.4299C143.264 51.0407 143.638 51.5962 144.114 52.0631C144.59 52.53 145.158 52.8987 145.784 53.1472C146.41 53.3957 147.081 53.5189 147.757 53.5094C148.603 53.514 149.438 53.3138 150.186 52.9269C150.933 52.54 151.57 51.9785 152.04 51.2927L150.288 50.156C150.025 50.5802 149.654 50.9308 149.21 51.1732C148.766 51.4157 148.266 51.5417 147.757 51.539C147.233 51.5585 146.715 51.4244 146.271 51.1541C145.827 50.8839 145.476 50.4899 145.265 50.0233L152.137 47.2572L151.904 46.6888ZM144.895 48.3561C144.871 47.9921 144.921 47.627 145.044 47.2822C145.166 46.9375 145.358 46.6199 145.608 46.3482C145.859 46.0766 146.162 45.8562 146.501 45.6999C146.839 45.5437 147.207 45.4548 147.581 45.4384C147.971 45.4135 148.36 45.5008 148.699 45.6894C149.039 45.8781 149.314 46.1598 149.489 46.4994L144.895 48.3561ZM139.307 53.2062H141.565V38.5042H139.307V53.2062ZM135.608 44.6237H135.53C135.187 44.2607 134.768 43.9732 134.301 43.7804C133.834 43.5876 133.331 43.494 132.824 43.5059C131.499 43.5608 130.246 44.1117 129.328 45.0437C128.411 45.9757 127.898 47.2167 127.898 48.5076C127.898 49.7985 128.411 51.0395 129.328 51.9715C130.246 52.9035 131.499 53.4545 132.824 53.5094C133.333 53.5226 133.838 53.4277 134.306 53.2314C134.773 53.0351 135.191 52.742 135.53 52.3727H135.608V53.0926C135.608 55.0062 134.557 56.0292 132.863 56.0292C132.298 56.0161 131.751 55.8397 131.289 55.5225C130.828 55.2053 130.475 54.7618 130.274 54.2483L128.307 55.0441C128.678 55.9222 129.309 56.6726 130.121 57.1992C130.933 57.7257 131.887 58.0045 132.863 57.9996C135.511 57.9996 137.75 56.484 137.75 52.7894V43.8089H135.608V44.6237ZM133.019 51.539C132.238 51.4746 131.511 51.1273 130.981 50.5659C130.451 50.0046 130.157 49.27 130.157 48.5076C130.157 47.7453 130.451 47.0107 130.981 46.4493C131.511 45.888 132.238 45.5407 133.019 45.4763C133.407 45.4947 133.788 45.5891 134.138 45.7537C134.488 45.9184 134.8 46.1499 135.056 46.4345C135.313 46.7192 135.507 47.0511 135.629 47.4105C135.75 47.7699 135.796 48.1495 135.764 48.5265C135.794 48.9012 135.746 49.2781 135.624 49.6344C135.501 49.9908 135.306 50.3195 135.049 50.6007C134.793 50.882 134.481 51.11 134.132 51.2712C133.783 51.4324 133.405 51.5235 133.019 51.539ZM162.482 38.5044H157.079V53.2062H159.334V47.6362H162.482C163.12 47.6702 163.758 47.5773 164.358 47.3632C164.958 47.1491 165.506 46.8183 165.97 46.391C166.434 45.9637 166.803 45.4488 167.056 44.8779C167.308 44.3069 167.438 43.6919 167.438 43.0703C167.438 42.4487 167.308 41.8337 167.056 41.2627C166.803 40.6918 166.434 40.1769 165.97 39.7496C165.506 39.3222 164.958 38.9914 164.358 38.7773C163.758 38.5633 163.12 38.4704 162.482 38.5044ZM162.541 45.5901H159.334V40.5506H162.541C162.885 40.5436 163.228 40.6037 163.548 40.7272C163.868 40.8507 164.16 41.0352 164.407 41.2698C164.653 41.5045 164.848 41.7846 164.982 42.0938C165.115 42.403 165.184 42.735 165.184 43.0703C165.184 43.4057 165.115 43.7377 164.982 44.0469C164.848 44.3561 164.653 44.6362 164.407 44.8709C164.16 45.1055 163.868 45.29 163.548 45.4135C163.228 45.537 162.885 45.5971 162.541 45.5901ZM176.476 43.4788C175.653 43.4321 174.834 43.6202 174.119 44.02C173.405 44.4198 172.826 45.014 172.453 45.7296L174.455 46.5429C174.653 46.1877 174.954 45.8966 175.32 45.7051C175.686 45.5136 176.101 45.4301 176.515 45.4648C177.087 45.4104 177.658 45.579 178.102 45.9335C178.547 46.2881 178.829 46.7997 178.886 47.3561V47.5075C178.162 47.1331 177.354 46.9382 176.535 46.9401C174.377 46.9401 172.181 48.0939 172.181 50.2501C172.202 50.7045 172.316 51.1502 172.518 51.5607C172.719 51.9712 173.003 52.3382 173.353 52.6399C173.703 52.9415 174.111 53.1717 174.554 53.3168C174.997 53.4618 175.466 53.5188 175.932 53.4843C176.5 53.5169 177.066 53.4007 177.572 53.1479C178.078 52.8951 178.505 52.5149 178.809 52.0469H178.886V53.1818H181.063V47.5454C181.063 44.9352 179.061 43.4788 176.476 43.4788ZM176.204 51.5362C175.466 51.5362 174.435 51.1769 174.435 50.2878C174.435 49.1531 175.718 48.718 176.826 48.718C177.546 48.6993 178.257 48.8692 178.886 49.2098C178.804 49.8475 178.486 50.4344 177.993 50.8621C177.5 51.2897 176.865 51.5292 176.204 51.5362ZM188.993 43.8004L186.408 50.1743H186.33L183.648 43.8004H181.219L185.242 52.7089L182.949 57.6644H185.3L191.5 43.8004H188.993ZM168.682 53.2062H170.937V38.5044H168.682V53.2062Z" fill="#1A141F"/>
<path d="M52.0634 26.7905C51.6672 27.2515 51.4671 27.8426 51.5041 28.4426V54.4514C51.467 55.0515 51.6671 55.6426 52.0634 56.1036L52.1529 56.1884L67.1246 41.6189V41.2752L52.1529 26.7051L52.0634 26.7905Z" fill="url(#paint0_linear_422_12399)"/>
<path d="M72.115 46.4777L67.1248 41.6191V41.2754L72.1162 36.418L72.2287 36.4804L78.1415 39.7498C79.8305 40.6836 79.8305 42.2115 78.1415 43.1458L72.2287 46.4153L72.115 46.4777Z" fill="url(#paint1_linear_422_12399)"/>
<path d="M72.2274 46.4146L67.1234 41.4473L52.0623 56.1038C52.4064 56.3992 52.8459 56.5681 53.3045 56.5813C53.7632 56.5944 54.2121 56.4511 54.5736 56.176L72.2274 46.4146Z" fill="url(#paint2_linear_422_12399)"/>
<path d="M72.2274 36.48L54.5736 26.7186C54.2121 26.4435 53.7632 26.3001 53.3045 26.3133C52.8459 26.3265 52.4064 26.4954 52.0623 26.7908L67.1234 41.4474L72.2274 36.48Z" fill="url(#paint3_linear_422_12399)"/>
<path opacity="0.2" d="M72.1149 46.3047L54.5736 56.0036C54.226 56.2611 53.8019 56.4016 53.3651 56.4038C52.9283 56.4061 52.5026 56.27 52.1523 56.0162L52.0623 56.1038L52.1517 56.1886L52.1523 56.188C52.5026 56.442 52.9283 56.5781 53.3651 56.5759C53.8019 56.5736 54.2261 56.433 54.5736 56.1754L72.2274 46.4141L72.1149 46.3047Z" fill="black"/>
<path opacity="0.12" d="M52.0634 55.9334C51.6672 55.4723 51.4671 54.8813 51.5041 54.2812V54.4531C51.4671 55.0531 51.6671 55.6442 52.0634 56.1052L52.1534 56.0176L52.0634 55.9334Z" fill="black"/>
<path opacity="0.12" d="M78.1422 42.9729L72.1169 46.3048L72.2295 46.4142L78.1422 43.1447C78.4901 42.9978 78.791 42.7629 79.0139 42.4643C79.2367 42.1658 79.3731 41.8146 79.4091 41.4473C79.3343 41.7799 79.1809 42.091 78.961 42.3558C78.7411 42.6207 78.4607 42.8319 78.1422 42.9729Z" fill="black"/>
<path opacity="0.25" d="M54.5743 26.8919L78.1408 39.9221C78.4595 40.0631 78.7399 40.2744 78.9598 40.5394C79.1797 40.8043 79.3331 41.1156 79.4077 41.4484C79.372 41.0809 79.2356 40.7295 79.0128 40.4308C78.7899 40.1321 78.4888 39.8971 78.1408 39.7503L54.5743 26.7201C52.8853 25.7862 51.5037 26.5619 51.5037 28.4445V28.6163C51.5037 26.7338 52.8853 25.9581 54.5743 26.8919Z" fill="white"/>
</g>
<defs>
<filter id="filter0_d_422_12399" x="0" y="0" width="243" height="91.9998" filterUnits="userSpaceOnUse" color-interpolation-filters="sRGB">
<feFlood flood-opacity="0" result="BackgroundImageFix"/>
<feColorMatrix in="SourceAlpha" type="matrix" values="0 0 0 0 0 0 0 0 0 0 0 0 0 0 0 0 0 0 127 0" result="hardAlpha"/>
<feOffset dy="4"/>
<feGaussianBlur stdDeviation="5"/>
<feComposite in2="hardAlpha" operator="out"/>
<feColorMatrix type="matrix" values="0 0 0 0 0 0 0 0 0 0 0 0 0 0 0 0 0 0 0.1 0"/>
<feBlend mode="normal" in2="BackgroundImageFix" result="effect1_dropShadow_422_12399"/>
<feBlend mode="normal" in="SourceGraphic" in2="effect1_dropShadow_422_12399" result="shape"/>
</filter>
<linearGradient id="paint0_linear_422_12399" x1="65.7969" y1="28.1684" x2="46.0679" y2="48.4419" gradientUnits="userSpaceOnUse">
<stop stop-color="#00A0FF"/>
<stop offset="0.00657" stop-color="#00A1FF"/>
<stop offset="0.2601" stop-color="#00BEFF"/>
<stop offset="0.5122" stop-color="#00D2FF"/>
<stop offset="0.7604" stop-color="#00DFFF"/>
<stop offset="1" stop-color="#00E3FF"/>
</linearGradient>
<linearGradient id="paint1_linear_422_12399" x1="80.3405" y1="41.4478" x2="51.0994" y2="41.4478" gradientUnits="userSpaceOnUse">
<stop stop-color="#FFE000"/>
<stop offset="0.4087" stop-color="#FFBD00"/>
<stop offset="0.7754" stop-color="#FFA500"/>
<stop offset="1" stop-color="#FF9C00"/>
</linearGradient>
<linearGradient id="paint2_linear_422_12399" x1="69.454" y1="44.1463" x2="42.6999" y2="71.6388" gradientUnits="userSpaceOnUse">
<stop stop-color="#FF3A44"/>
<stop offset="1" stop-color="#C31162"/>
</linearGradient>
<linearGradient id="paint3_linear_422_12399" x1="48.27" y1="18.1332" x2="60.2168" y2="30.4097" gradientUnits="userSpaceOnUse">
<stop stop-color="#32A071"/>
<stop offset="0.0685" stop-color="#2DA771"/>
<stop offset="0.4762" stop-color="#15CF74"/>
<stop offset="0.8009" stop-color="#06E775"/>
<stop offset="1" stop-color="#00F076"/>
</linearGradient>
</defs>
</svg>
